<?xml version="1.0" encoding="UTF-8"?>
<svg xmlns="http://www.w3.org/2000/svg" xmlns:xlink="http://www.w3.org/1999/xlink" width="500px" height="500px" viewBox="0 0 500 500" version="1.1">
<defs>
<radialGradient id="radial0" gradientUnits="userSpaceOnUse" cx="32" cy="31.5" fx="32" fy="31.5" r="31.259" spreadMethod="reflect" gradientTransform="matrix(7.8125,0,0,7.8125,0,0)">
<stop offset="0" style="stop-color:rgb(93.333333%,84.313725%,63.529412%);stop-opacity:1;"/>
<stop offset="0.106" style="stop-color:rgb(94.509804%,86.27451%,67.058824%);stop-opacity:1;"/>
<stop offset="0.437" style="stop-color:rgb(97.254902%,90.980392%,76.470588%);stop-opacity:1;"/>
<stop offset="0.744" style="stop-color:rgb(98.823529%,93.72549%,82.352941%);stop-opacity:1;"/>
<stop offset="1" style="stop-color:rgb(99.607843%,94.901961%,84.313725%);stop-opacity:1;"/>
</radialGradient>
<linearGradient id="linear0" gradientUnits="userSpaceOnUse" x1="32" y1="78.528" x2="32" y2="14.972" spreadMethod="reflect" gradientTransform="matrix(7.8125,0,0,7.8125,0,0)">
<stop offset="0" style="stop-color:rgb(8.235294%,36.078431%,87.058824%);stop-opacity:1;"/>
<stop offset="0.278" style="stop-color:rgb(12.156863%,49.803922%,89.803922%);stop-opacity:1;"/>
<stop offset="0.569" style="stop-color:rgb(15.294118%,61.176471%,92.156863%);stop-opacity:1;"/>
<stop offset="0.82" style="stop-color:rgb(17.254902%,68.627451%,93.72549%);stop-opacity:1;"/>
<stop offset="1" style="stop-color:rgb(18.039216%,70.980392%,94.117647%);stop-opacity:1;"/>
</linearGradient>
<linearGradient id="linear1" gradientUnits="userSpaceOnUse" x1="32" y1="56" x2="32" y2="12" spreadMethod="reflect" gradientTransform="matrix(7.8125,0,0,7.8125,0,0)">
<stop offset="0.003" style="stop-color:rgb(22.352941%,58.431373%,91.372549%);stop-opacity:1;"/>
<stop offset="1" style="stop-color:rgb(30.196078%,75.294118%,94.901961%);stop-opacity:1;"/>
</linearGradient>
<linearGradient id="linear2" gradientUnits="userSpaceOnUse" x1="48" y1="20.497" x2="48" y2="13.42" spreadMethod="reflect" gradientTransform="matrix(7.8125,0,0,7.8125,0,0)">
<stop offset="0" style="stop-color:rgb(100%,38.823529%,30.196078%);stop-opacity:1;"/>
<stop offset="0.204" style="stop-color:rgb(99.607843%,39.215686%,39.215686%);stop-opacity:1;"/>
<stop offset="0.521" style="stop-color:rgb(98.823529%,39.607843%,50.588235%);stop-opacity:1;"/>
<stop offset="0.794" style="stop-color:rgb(98.039216%,40%,58.039216%);stop-opacity:1;"/>
<stop offset="0.989" style="stop-color:rgb(98.039216%,40%,60.392157%);stop-opacity:1;"/>
<stop offset="1" style="stop-color:rgb(98.039216%,40%,60.392157%);stop-opacity:1;"/>
</linearGradient>
<linearGradient id="linear3" gradientUnits="userSpaceOnUse" x1="41" y1="22.293" x2="41" y2="16.038" spreadMethod="reflect" gradientTransform="matrix(7.8125,0,0,7.8125,0,0)">
<stop offset="0" style="stop-color:rgb(5.098039%,27.843137%,63.137255%);stop-opacity:1;"/>
<stop offset="0.365" style="stop-color:rgb(7.45098%,37.254902%,72.941176%);stop-opacity:1;"/>
<stop offset="0.734" style="stop-color:rgb(9.019608%,43.921569%,80%);stop-opacity:1;"/>
<stop offset="1" style="stop-color:rgb(9.803922%,46.27451%,82.352941%);stop-opacity:1;"/>
</linearGradient>
<linearGradient id="linear4" gradientUnits="userSpaceOnUse" x1="34" y1="22.35" x2="34" y2="16.095" spreadMethod="reflect" gradientTransform="matrix(7.8125,0,0,7.8125,0,0)">
<stop offset="0" style="stop-color:rgb(5.098039%,27.843137%,63.137255%);stop-opacity:1;"/>
<stop offset="0.365" style="stop-color:rgb(7.45098%,37.254902%,72.941176%);stop-opacity:1;"/>
<stop offset="0.734" style="stop-color:rgb(9.019608%,43.921569%,80%);stop-opacity:1;"/>
<stop offset="1" style="stop-color:rgb(9.803922%,46.27451%,82.352941%);stop-opacity:1;"/>
</linearGradient>
</defs>
<g id="surface303154">
<path style=" stroke:none;fill-rule:nonzero;fill:url(#radial0);" d="M 453.125 421.875 C 444.492188 421.875 437.5 414.882812 437.5 406.25 C 437.5 397.617188 444.492188 390.625 453.125 390.625 L 472.65625 390.625 C 487.695312 390.625 500 378.320312 500 363.28125 C 500 348.242188 487.695312 335.9375 472.65625 335.9375 L 390.625 335.9375 C 379.835938 335.9375 371.09375 327.195312 371.09375 316.40625 C 371.09375 305.617188 379.835938 296.875 390.625 296.875 L 453.125 296.875 C 466.015625 296.875 476.5625 286.328125 476.5625 273.4375 C 476.5625 260.546875 466.015625 250 453.125 250 L 328.125 250 L 328.125 203.125 L 468.75 203.125 C 486.992188 203.125 501.71875 187.28125 499.835938 168.671875 C 498.203125 152.453125 483.570312 140.625 467.273438 140.625 L 453.125 140.625 C 444.492188 140.625 437.5 133.632812 437.5 125 C 437.5 116.367188 444.492188 109.375 453.125 109.375 L 455.914062 109.375 C 466.132812 109.375 475.4375 102.023438 476.460938 91.859375 C 477.632812 80.164062 468.484375 70.3125 457.03125 70.3125 L 347.65625 70.3125 C 341.1875 70.3125 335.9375 65.0625 335.9375 58.59375 C 335.9375 52.125 341.1875 46.875 347.65625 46.875 L 377.789062 46.875 C 388.007812 46.875 397.3125 39.523438 398.335938 29.359375 C 399.507812 17.664062 390.359375 7.8125 378.90625 7.8125 L 122.210938 7.8125 C 111.992188 7.8125 102.6875 15.164062 101.664062 25.328125 C 100.492188 37.023438 109.640625 46.875 121.09375 46.875 L 148.4375 46.875 C 157.070312 46.875 164.0625 53.867188 164.0625 62.5 C 164.0625 71.132812 157.070312 78.125 148.4375 78.125 L 48.351562 78.125 C 32.054688 78.125 17.429688 89.953125 15.789062 106.171875 C 13.90625 124.78125 28.632812 140.625 46.875 140.625 L 66.40625 140.625 C 81.507812 140.625 93.75 152.867188 93.75 167.96875 C 93.75 183.070312 81.507812 195.3125 66.40625 195.3125 L 40.539062 195.3125 C 24.242188 195.3125 9.617188 207.140625 7.976562 223.359375 C 6.09375 241.96875 20.820312 257.8125 39.0625 257.8125 L 171.875 257.8125 L 171.875 343.75 L 46.875 343.75 C 33.984375 343.75 23.4375 354.296875 23.4375 367.1875 C 23.4375 380.078125 33.984375 390.625 46.875 390.625 C 55.507812 390.625 62.5 397.617188 62.5 406.25 C 62.5 414.882812 55.507812 421.875 46.875 421.875 L 32.726562 421.875 C 16.429688 421.875 1.804688 433.703125 0.164062 449.921875 C -1.71875 468.53125 13.007812 484.375 31.25 484.375 L 451.648438 484.375 C 467.945312 484.375 482.570312 472.546875 484.210938 456.328125 C 486.09375 437.71875 471.367188 421.875 453.125 421.875 Z M 453.125 421.875 "/>
<path style=" stroke:none;fill-rule:nonzero;fill:url(#linear0);" d="M 390.625 93.75 L 109.375 93.75 C 92.117188 93.75 78.125 107.742188 78.125 125 L 78.125 406.25 C 78.125 423.507812 92.117188 437.5 109.375 437.5 L 390.625 437.5 C 407.882812 437.5 421.875 423.507812 421.875 406.25 L 421.875 125 C 421.875 107.742188 407.882812 93.75 390.625 93.75 Z M 390.625 93.75 "/>
<path style=" stroke:none;fill-rule:nonzero;fill:url(#linear1);" d="M 390.625 93.75 L 195.3125 93.75 C 186.71875 93.75 179.6875 100.78125 179.6875 109.375 C 179.6875 117.96875 186.71875 125 195.3125 125 L 210.9375 125 C 219.53125 125 226.5625 132.03125 226.5625 140.625 C 226.5625 149.21875 219.53125 156.25 210.9375 156.25 L 156.25 156.25 C 143.359375 156.25 132.8125 166.796875 132.8125 179.6875 C 132.8125 192.578125 143.359375 203.125 156.25 203.125 L 242.1875 203.125 L 242.1875 250 L 78.125 250 L 78.125 406.25 C 78.125 423.507812 92.117188 437.5 109.375 437.5 L 390.625 437.5 C 407.882812 437.5 421.875 423.507812 421.875 406.25 L 421.875 125 C 421.875 107.742188 407.882812 93.75 390.625 93.75 Z M 390.625 93.75 "/>
<path style=" stroke:none;fill-rule:nonzero;fill:url(#linear2);" d="M 382.8125 156.25 L 367.1875 156.25 C 362.890625 156.25 359.375 152.734375 359.375 148.4375 L 359.375 132.8125 C 359.375 128.515625 362.890625 125 367.1875 125 L 382.8125 125 C 387.109375 125 390.625 128.515625 390.625 132.8125 L 390.625 148.4375 C 390.625 152.734375 387.109375 156.25 382.8125 156.25 Z M 382.8125 156.25 "/>
<path style=" stroke:none;fill-rule:nonzero;fill:url(#linear3);" d="M 328.125 156.25 L 312.5 156.25 C 308.203125 156.25 304.6875 152.734375 304.6875 148.4375 L 304.6875 132.8125 C 304.6875 128.515625 308.203125 125 312.5 125 L 328.125 125 C 332.421875 125 335.9375 128.515625 335.9375 132.8125 L 335.9375 148.4375 C 335.9375 152.734375 332.421875 156.25 328.125 156.25 Z M 328.125 156.25 "/>
<path style=" stroke:none;fill-rule:nonzero;fill:url(#linear4);" d="M 273.4375 156.25 L 257.8125 156.25 C 253.515625 156.25 250 152.734375 250 148.4375 L 250 132.8125 C 250 128.515625 253.515625 125 257.8125 125 L 273.4375 125 C 277.734375 125 281.25 128.515625 281.25 132.8125 L 281.25 148.4375 C 281.25 152.734375 277.734375 156.25 273.4375 156.25 Z M 273.4375 156.25 "/>
<path style=" stroke:none;fill-rule:nonzero;fill:rgb(94.509804%,98.823529%,100%);fill-opacity:1;" d="M 375 187.5 L 125 187.5 C 116.367188 187.5 109.375 194.492188 109.375 203.125 L 109.375 390.625 C 109.375 399.257812 116.367188 406.25 125 406.25 L 375 406.25 C 383.632812 406.25 390.625 399.257812 390.625 390.625 L 390.625 203.125 C 390.625 194.492188 383.632812 187.5 375 187.5 Z M 375 187.5 "/>
</g>
</svg>
