<?xml version="1.0" encoding="UTF-8"?>
<svg xmlns="http://www.w3.org/2000/svg" xmlns:xlink="http://www.w3.org/1999/xlink" width="500px" height="500px" viewBox="0 0 500 500" version="1.1">
<defs>
<radialGradient id="radial0" gradientUnits="userSpaceOnUse" cx="-117.362" cy="40.514" fx="-117.362" fy="40.514" r="180.803" spreadMethod="reflect" gradientTransform="matrix(7.8125,0,0,7.8125,0,0)">
<stop offset="0" style="stop-color:rgb(95.686275%,91.372549%,76.470588%);stop-opacity:1;"/>
<stop offset="0.219" style="stop-color:rgb(97.254902%,93.333333%,80.392157%);stop-opacity:1;"/>
<stop offset="0.644" style="stop-color:rgb(99.215686%,95.686275%,86.27451%);stop-opacity:1;"/>
<stop offset="1" style="stop-color:rgb(100%,96.470588%,88.235294%);stop-opacity:1;"/>
</radialGradient>
<radialGradient id="radial1" gradientUnits="userSpaceOnUse" cx="-9.546" cy="30.613" fx="-9.546" fy="30.613" r="14.612" spreadMethod="reflect" gradientTransform="matrix(7.8125,0,0,7.8125,0,0)">
<stop offset="0" style="stop-color:rgb(95.686275%,91.372549%,76.470588%);stop-opacity:1;"/>
<stop offset="0.219" style="stop-color:rgb(97.254902%,93.333333%,80.392157%);stop-opacity:1;"/>
<stop offset="0.644" style="stop-color:rgb(99.215686%,95.686275%,86.27451%);stop-opacity:1;"/>
<stop offset="1" style="stop-color:rgb(100%,96.470588%,88.235294%);stop-opacity:1;"/>
</radialGradient>
<linearGradient id="linear0" gradientUnits="userSpaceOnUse" x1="32" y1="3" x2="32" y2="61" spreadMethod="reflect" gradientTransform="matrix(7.8125,0,0,7.8125,0,0)">
<stop offset="0" style="stop-color:rgb(64.313725%,64.313725%,64.313725%);stop-opacity:1;"/>
<stop offset="0.619" style="stop-color:rgb(50.196078%,50.196078%,50.196078%);stop-opacity:1;"/>
<stop offset="1" style="stop-color:rgb(43.529412%,43.529412%,43.529412%);stop-opacity:1;"/>
<stop offset="1" style="stop-color:rgb(43.529412%,43.529412%,43.529412%);stop-opacity:1;"/>
</linearGradient>
<linearGradient id="linear1" gradientUnits="userSpaceOnUse" x1="32" y1="10" x2="32" y2="76.129" spreadMethod="reflect" gradientTransform="matrix(7.8125,0,0,7.8125,0,0)">
<stop offset="0" style="stop-color:rgb(87.45098%,97.647059%,100%);stop-opacity:1;"/>
<stop offset="0" style="stop-color:rgb(87.45098%,97.647059%,100%);stop-opacity:1;"/>
<stop offset="0.173" style="stop-color:rgb(84.705882%,97.254902%,100%);stop-opacity:1;"/>
<stop offset="0.423" style="stop-color:rgb(77.254902%,95.686275%,100%);stop-opacity:1;"/>
<stop offset="0.72" style="stop-color:rgb(64.705882%,93.333333%,100%);stop-opacity:1;"/>
<stop offset="1" style="stop-color:rgb(50.588235%,90.588235%,100%);stop-opacity:1;"/>
</linearGradient>
<linearGradient id="linear2" gradientUnits="userSpaceOnUse" x1="40" y1="50.958" x2="40" y2="35.958" spreadMethod="reflect" gradientTransform="matrix(7.8125,0,0,7.8125,0,0)">
<stop offset="0" style="stop-color:rgb(53.72549%,89.411765%,98.039216%);stop-opacity:1;"/>
<stop offset="0.406" style="stop-color:rgb(58.039216%,90.980392%,98.823529%);stop-opacity:1;"/>
<stop offset="1" style="stop-color:rgb(67.45098%,94.117647%,100%);stop-opacity:1;"/>
</linearGradient>
<linearGradient id="linear3" gradientUnits="userSpaceOnUse" x1="37.5" y1="24" x2="37.5" y2="19" spreadMethod="reflect" gradientTransform="matrix(7.8125,0,0,7.8125,0,0)">
<stop offset="0" style="stop-color:rgb(92.54902%,97.647059%,99.215686%);stop-opacity:1;"/>
<stop offset="0.848" style="stop-color:rgb(94.901961%,99.215686%,100%);stop-opacity:1;"/>
<stop offset="1" style="stop-color:rgb(95.686275%,99.607843%,100%);stop-opacity:1;"/>
</linearGradient>
<linearGradient id="linear4" gradientUnits="userSpaceOnUse" x1="27" y1="43" x2="27" y2="10" spreadMethod="reflect" gradientTransform="matrix(7.8125,0,0,7.8125,0,0)">
<stop offset="0" style="stop-color:rgb(92.54902%,97.647059%,99.215686%);stop-opacity:1;"/>
<stop offset="0.848" style="stop-color:rgb(94.901961%,99.215686%,100%);stop-opacity:1;"/>
<stop offset="1" style="stop-color:rgb(95.686275%,99.607843%,100%);stop-opacity:1;"/>
</linearGradient>
</defs>
<g id="surface300959">
<path style=" stroke:none;fill-rule:nonzero;fill:url(#radial0);" d="M 464.84375 257.8125 L 430.460938 257.8125 C 422.789062 257.8125 415.671875 252.632812 414.320312 245.078125 C 414.148438 244.09375 414.0625 243.117188 414.0625 242.15625 C 414.078125 233.875 420.539062 227.101562 428.695312 226.59375 C 440.53125 225.851562 451.398438 218.015625 452.921875 206.25 C 453.054688 205.1875 453.125 204.140625 453.125 203.101562 C 453.109375 190.171875 442.625 179.6875 429.6875 179.6875 L 390.625 179.6875 L 390.625 125.460938 C 395.515625 120.453125 402.28125 117.28125 409.8125 117.1875 C 409.820312 117.1875 409.828125 117.1875 409.835938 117.1875 C 409.867188 117.1875 409.890625 117.1875 409.914062 117.1875 C 409.921875 117.1875 409.9375 117.1875 409.945312 117.1875 C 409.96875 117.1875 410 117.1875 410.023438 117.1875 C 410.03125 117.1875 410.039062 117.1875 410.054688 117.1875 C 410.09375 117.1875 410.125 117.1875 410.15625 117.1875 L 424.234375 117.1875 C 438.953125 117.1875 452.15625 106.234375 453.070312 91.578125 C 453.078125 91.492188 453.078125 91.40625 453.085938 91.320312 C 453.109375 90.820312 453.125 90.335938 453.125 89.84375 C 453.125 74.742188 440.882812 62.5 425.78125 62.5 L 320.3125 62.5 L 351.5625 93.75 L 91.390625 93.75 C 76.578125 93.75 63.3125 104.835938 62.539062 119.625 C 62.53125 119.8125 62.523438 119.992188 62.515625 120.179688 C 62.007812 135.695312 74.4375 148.4375 89.84375 148.4375 L 109.375 148.4375 L 109.375 210.9375 L 74.21875 210.9375 C 63.429688 210.9375 54.6875 219.679688 54.6875 230.46875 C 54.6875 241.257812 63.429688 250 74.21875 250 C 85.007812 250 93.75 258.742188 93.75 269.53125 C 93.75 280.320312 85.007812 289.0625 74.21875 289.0625 L 32.578125 289.0625 C 19.882812 289.0625 8.507812 298.570312 7.84375 311.242188 C 7.828125 311.664062 7.8125 312.085938 7.8125 312.5 C 7.8125 325.4375 18.304688 335.9375 31.25 335.9375 L 69.476562 335.9375 C 77.257812 335.9375 84.46875 341.257812 85.726562 348.9375 C 85.867188 349.820312 85.9375 350.6875 85.9375 351.539062 C 85.945312 360.179688 78.953125 367.1875 70.3125 367.1875 L 63.828125 367.1875 C 51.140625 367.1875 39.757812 376.695312 39.101562 389.367188 C 39.078125 389.789062 39.0625 390.210938 39.0625 390.625 C 39.0625 403.5625 49.554688 414.0625 62.5 414.0625 L 109.375 414.0625 L 109.375 406.25 L 428.359375 406.25 C 440.625 406.25 452.445312 396.320312 453.085938 384.070312 C 453.796875 370.554688 443.046875 359.375 429.6875 359.375 L 429.585938 359.375 C 429.539062 359.375 429.5 359.375 429.453125 359.375 C 423.382812 359.375 417.429688 357.390625 413.21875 353.375 C 411.890625 352.109375 410.734375 350.640625 409.796875 348.96875 C 399.734375 330.859375 412.570312 312.5 429.6875 312.5 L 463.296875 312.5 C 478.109375 312.5 491.382812 301.40625 492.148438 286.617188 C 492.96875 270.851562 480.429688 257.8125 464.84375 257.8125 Z M 464.84375 257.8125 "/>
<path style=" stroke:none;fill-rule:nonzero;fill:url(#radial1);" d="M 39.0625 230.46875 C 39.0625 219.679688 30.320312 210.9375 19.53125 210.9375 C 8.742188 210.9375 0 219.679688 0 230.46875 C 0 241.257812 8.742188 250 19.53125 250 C 30.320312 250 39.0625 241.257812 39.0625 230.46875 Z M 39.0625 230.46875 "/>
<path style=" stroke:none;fill-rule:nonzero;fill:url(#linear0);" d="M 351.5625 476.5625 L 148.4375 476.5625 C 126.867188 476.5625 109.375 459.070312 109.375 437.5 L 109.375 62.5 C 109.375 40.929688 126.867188 23.4375 148.4375 23.4375 L 351.5625 23.4375 C 373.132812 23.4375 390.625 40.929688 390.625 62.5 L 390.625 437.5 C 390.625 459.070312 373.132812 476.5625 351.5625 476.5625 Z M 351.5625 476.5625 "/>
<path style=" stroke:none;fill-rule:nonzero;fill:url(#linear1);" d="M 343.75 398.4375 L 156.25 398.4375 C 143.304688 398.4375 132.8125 387.945312 132.8125 375 L 132.8125 101.5625 C 132.8125 88.617188 143.304688 78.125 156.25 78.125 L 343.75 78.125 C 356.695312 78.125 367.1875 88.617188 367.1875 101.5625 L 367.1875 375 C 367.1875 387.945312 356.695312 398.4375 343.75 398.4375 Z M 343.75 398.4375 "/>
<path style=" stroke:none;fill-rule:nonzero;fill:rgb(73.72549%,73.72549%,73.72549%);fill-opacity:1;" d="M 289.0625 62.5 L 210.9375 62.5 C 206.625 62.5 203.125 59 203.125 54.6875 C 203.125 50.375 206.625 46.875 210.9375 46.875 L 289.0625 46.875 C 293.375 46.875 296.875 50.375 296.875 54.6875 C 296.875 59 293.375 62.5 289.0625 62.5 Z M 289.0625 62.5 "/>
<path style=" stroke:none;fill-rule:nonzero;fill:rgb(61.960784%,61.960784%,61.960784%);fill-opacity:1;" d="M 250 414.0625 C 237.054688 414.0625 226.5625 424.554688 226.5625 437.5 C 226.5625 450.445312 237.054688 460.9375 250 460.9375 C 262.945312 460.9375 273.4375 450.445312 273.4375 437.5 C 273.4375 424.554688 262.945312 414.0625 250 414.0625 Z M 250 414.0625 "/>
<path style=" stroke:none;fill-rule:nonzero;fill:url(#linear2);" d="M 289.0625 300.78125 C 289.0625 311.570312 297.804688 320.3125 308.59375 320.3125 C 319.382812 320.3125 328.125 329.054688 328.125 339.84375 C 328.125 350.632812 319.382812 359.375 308.59375 359.375 L 277.34375 359.375 C 266.554688 359.375 257.8125 368.117188 257.8125 378.90625 C 257.8125 389.695312 266.554688 398.4375 277.34375 398.4375 L 343.75 398.4375 C 356.695312 398.4375 367.1875 387.945312 367.1875 375 L 367.1875 281.25 L 308.59375 281.25 C 297.804688 281.25 289.0625 289.992188 289.0625 300.78125 Z M 289.0625 300.78125 "/>
<path style=" stroke:none;fill-rule:nonzero;fill:url(#linear3);" d="M 273.4375 167.96875 C 273.4375 178.757812 282.179688 187.5 292.96875 187.5 C 303.757812 187.5 312.5 178.757812 312.5 167.96875 C 312.5 157.179688 303.757812 148.4375 292.96875 148.4375 C 282.179688 148.4375 273.4375 157.179688 273.4375 167.96875 Z M 273.4375 167.96875 "/>
<path style=" stroke:none;fill-rule:nonzero;fill:url(#linear4);" d="M 222.65625 187.5 L 230.46875 187.5 C 241.257812 187.5 250 178.757812 250 167.96875 C 250 157.179688 241.257812 148.4375 230.46875 148.4375 L 203.125 148.4375 C 194.492188 148.4375 187.5 141.445312 187.5 132.8125 C 187.5 124.179688 194.492188 117.1875 203.125 117.1875 L 269.53125 117.1875 C 280.320312 117.1875 289.0625 108.445312 289.0625 97.65625 C 289.0625 86.867188 280.320312 78.125 269.53125 78.125 L 156.25 78.125 C 143.304688 78.125 132.8125 88.617188 132.8125 101.5625 L 132.8125 335.9375 L 207.03125 335.9375 C 217.820312 335.9375 226.5625 327.195312 226.5625 316.40625 C 226.5625 305.617188 217.820312 296.875 207.03125 296.875 L 203.125 296.875 C 194.492188 296.875 187.5 289.882812 187.5 281.25 C 187.5 272.617188 194.492188 265.625 203.125 265.625 L 246.09375 265.625 C 256.882812 265.625 265.625 256.882812 265.625 246.09375 C 265.625 235.304688 256.882812 226.5625 246.09375 226.5625 L 222.65625 226.5625 C 211.867188 226.5625 203.125 217.820312 203.125 207.03125 C 203.125 196.242188 211.867188 187.5 222.65625 187.5 Z M 222.65625 187.5 "/>
</g>
</svg>
