<?xml version="1.0" encoding="UTF-8"?>
<svg xmlns="http://www.w3.org/2000/svg" xmlns:xlink="http://www.w3.org/1999/xlink" width="64px" height="64px" viewBox="0 0 64 64" version="1.1">
<defs>
<radialGradient id="radial0" gradientUnits="userSpaceOnUse" cx="32" cy="32" fx="32" fy="32" r="33.002" spreadMethod="reflect">
<stop offset="0" style="stop-color:rgb(95.686275%,87.843137%,61.568627%);stop-opacity:1;"/>
<stop offset="0.226" style="stop-color:rgb(97.254902%,90.980392%,70.980392%);stop-opacity:1;"/>
<stop offset="0.513" style="stop-color:rgb(98.823529%,94.117647%,80.392157%);stop-opacity:1;"/>
<stop offset="0.778" style="stop-color:rgb(99.607843%,95.686275%,86.27451%);stop-opacity:1;"/>
<stop offset="1" style="stop-color:rgb(100%,96.470588%,88.235294%);stop-opacity:1;"/>
</radialGradient>
<linearGradient id="linear0" gradientUnits="userSpaceOnUse" x1="33" y1="58" x2="33" y2="6" spreadMethod="reflect">
<stop offset="0" style="stop-color:rgb(25.490196%,74.901961%,92.54902%);stop-opacity:1;"/>
<stop offset="0.235" style="stop-color:rgb(29.803922%,77.254902%,93.72549%);stop-opacity:1;"/>
<stop offset="0.651" style="stop-color:rgb(41.960784%,83.137255%,96.470588%);stop-opacity:1;"/>
<stop offset="1" style="stop-color:rgb(53.72549%,89.411765%,99.215686%);stop-opacity:1;"/>
</linearGradient>
<linearGradient id="linear1" gradientUnits="userSpaceOnUse" x1="38.879" y1="20.121" x2="46.454" y2="12.546" spreadMethod="reflect">
<stop offset="0" style="stop-color:rgb(78.039216%,93.72549%,99.215686%);stop-opacity:1;"/>
<stop offset="0.369" style="stop-color:rgb(72.156863%,92.54902%,99.215686%);stop-opacity:1;"/>
<stop offset="1" style="stop-color:rgb(58.431373%,89.803922%,99.215686%);stop-opacity:1;"/>
</linearGradient>
<linearGradient id="linear2" gradientUnits="userSpaceOnUse" x1="45.5" y1="24.083" x2="45.5" y2="18.083" spreadMethod="reflect">
<stop offset="0" style="stop-color:rgb(25.882353%,77.647059%,93.333333%);stop-opacity:1;"/>
<stop offset="0.534" style="stop-color:rgb(23.137255%,76.470588%,92.941176%);stop-opacity:1;"/>
<stop offset="1" style="stop-color:rgb(19.215686%,74.901961%,92.156863%);stop-opacity:1;"/>
</linearGradient>
<linearGradient id="linear3" gradientUnits="userSpaceOnUse" x1="33" y1="55.734" x2="33" y2="17.447" spreadMethod="reflect">
<stop offset="0" style="stop-color:rgb(8.235294%,36.078431%,87.058824%);stop-opacity:1;"/>
<stop offset="0.201" style="stop-color:rgb(9.411765%,40.784314%,87.843137%);stop-opacity:1;"/>
<stop offset="0.564" style="stop-color:rgb(12.941176%,52.941176%,90.588235%);stop-opacity:1;"/>
<stop offset="1" style="stop-color:rgb(18.039216%,70.980392%,94.117647%);stop-opacity:1;"/>
</linearGradient>
</defs>
<g id="surface160966">
<path style=" stroke:none;fill-rule:nonzero;fill:url(#radial0);" d="M 55.453125 45.667969 C 55.953125 46.566406 56.957031 47.003906 57.984375 47 C 59.734375 46.992188 61.140625 48.484375 60.988281 50.261719 C 60.855469 51.839844 59.433594 53 57.851562 53 L 48 53 L 48 54 L 7 54 C 5.289062 54 3.914062 52.570312 4.003906 50.839844 C 4.089844 49.214844 5.546875 48 7.171875 48 L 8 48 C 9.214844 48 10.175781 46.917969 9.972656 45.664062 C 9.8125 44.679688 8.890625 44 7.894531 44 L 3 44 C 1.289062 44 -0.0859375 42.570312 0.00390625 40.839844 C 0.0898438 39.214844 1.546875 38 3.171875 38 L 9.5 38 C 10.882812 38 12 36.882812 12 35.5 C 12 34.117188 10.882812 33 9.5 33 C 8.117188 33 7 31.882812 7 30.5 C 7 29.117188 8.117188 28 9.5 28 L 18 28 L 18 21 L 10.5 21 C 8.503906 21 6.898438 19.328125 7.003906 17.3125 C 7.105469 15.417969 8.804688 14 10.699219 14 L 18 14 L 18 10 L 56.5 10 C 58.496094 10 60.101562 11.671875 59.996094 13.6875 C 59.894531 15.582031 58.195312 17 56.300781 17 L 53.5 17 C 51.503906 17 49.898438 18.671875 50.003906 20.6875 C 50.105469 22.582031 51.804688 24 53.699219 24 L 56 24 C 57.777344 24 59.195312 25.546875 58.976562 27.367188 C 58.800781 28.875 57.433594 29.9375 55.914062 30 C 54.71875 30.050781 53.792969 31.152344 54.039062 32.40625 C 54.226562 33.355469 55.121094 34 56.089844 34 L 60.5 34 C 62.496094 34 64.101562 35.671875 63.996094 37.6875 C 63.894531 39.582031 62.195312 41 60.300781 41 L 58 41 C 55.808594 41 54.164062 43.351562 55.453125 45.667969 Z M 2.5 33 C 3.882812 33 5 31.882812 5 30.5 C 5 29.117188 3.882812 28 2.5 28 C 1.117188 28 0 29.117188 0 30.5 C 0 31.882812 1.117188 33 2.5 33 Z M 2.5 33 "/>
<path style=" stroke:none;fill-rule:nonzero;fill:url(#linear0);" d="M 50 58 L 16 58 C 14.34375 58 13 56.65625 13 55 L 13 9 C 13 7.34375 14.34375 6 16 6 L 36.757812 6 C 37.554688 6 38.316406 6.316406 38.878906 6.878906 L 52.121094 20.121094 C 52.683594 20.683594 53 21.445312 53 22.242188 L 53 55 C 53 56.65625 51.65625 58 50 58 Z M 50 58 "/>
<path style=" stroke:none;fill-rule:nonzero;fill:url(#linear1);" d="M 52.121094 20.121094 L 38.878906 6.878906 C 38.621094 6.625 38.320312 6.425781 38 6.277344 L 38 18 C 38 19.65625 39.34375 21 41 21 L 52.722656 21 C 52.574219 20.679688 52.378906 20.378906 52.121094 20.121094 Z M 52.121094 20.121094 "/>
<path style=" stroke:none;fill-rule:nonzero;fill:url(#linear2);" d="M 41 21 C 39.34375 21 38 19.65625 38 18 L 38 21 C 38 22.65625 39.34375 24 41 24 L 53 24 L 53 22.242188 C 53 21.808594 52.898438 21.386719 52.722656 21 Z M 41 21 "/>
<path style=" stroke:none;fill-rule:nonzero;fill:url(#linear3);" d="M 24 45 C 23.457031 45 22.914062 44.78125 22.519531 44.347656 L 17.519531 38.847656 C 16.828125 38.082031 16.828125 36.917969 17.519531 36.15625 L 22.519531 30.65625 C 23.261719 29.839844 24.527344 29.777344 25.34375 30.523438 C 26.160156 31.265625 26.222656 32.53125 25.480469 33.347656 L 21.703125 37.5 L 25.480469 41.65625 C 26.222656 42.472656 26.164062 43.738281 25.34375 44.480469 C 24.960938 44.828125 24.480469 45 24 45 Z M 43.480469 44.347656 L 48.480469 38.847656 C 49.171875 38.082031 49.171875 36.917969 48.480469 36.15625 L 43.480469 30.65625 C 42.734375 29.839844 41.472656 29.777344 40.65625 30.519531 C 39.839844 31.261719 39.777344 32.527344 40.519531 33.347656 L 44.296875 37.5 L 40.519531 41.652344 C 39.777344 42.472656 39.835938 43.738281 40.65625 44.480469 C 41.039062 44.828125 41.519531 45 42 45 C 42.542969 45 43.085938 44.78125 43.480469 44.347656 Z M 31.921875 48.550781 L 37.921875 27.550781 C 38.226562 26.488281 37.609375 25.382812 36.550781 25.078125 C 35.488281 24.773438 34.378906 25.390625 34.078125 26.449219 L 28.078125 47.449219 C 27.773438 48.515625 28.390625 49.621094 29.449219 49.925781 C 29.636719 49.976562 29.820312 50.003906 30 50.003906 C 30.871094 50.003906 31.671875 49.429688 31.921875 48.550781 Z M 31.921875 48.550781 "/>
</g>
</svg>
