<svg xmlns="http://www.w3.org/2000/svg" viewBox="0 0 1100 320">
  <defs/>
  <defs>
    <style>
      .cls-3{fill:#3982eb}.cls-5{fill:#34495e}
    </style>
  </defs>
  <g id="Layer_2" data-name="Layer 2">
    <path fill="#ffac00" d="M1026 145c0-10 13-18 28-18 11 12 27 24 25 42-4 17-16 30-26 43-16-29-46-33-75-34a300 300 0 0048-33z"/>
    <path fill="#3473db" d="M1044 112c5 4 9 9 10 15-15 0-28 8-28 18a300 300 0 01-48 33c-121-1-207 77-223 117a205 205 0 0143-126c8-10 18-21 29-29a186 186 0 0157-29l-29-17a580 580 0 00-63-31c-26-11-54-20-79-24 39-6 84 0 119 7-4-8-14-14-23-21a816 816 0 0180 17h1c49 13 96 32 139 59 5 3 11 6 15 11zm-51 7c14 3 29 4 45 9-18-12-37-17-55-25l10 16z"/>
    <path d="M855 94l29 17c-39 0-65-5-84-11-28-8-44-18-67-18 7-6 31-13 59-19a580 580 0 0163 31zM884 111a186 186 0 00-57 29c-11 8-21 19-29 29-20-4-43-1-56 10 0-11 16-30 46-46 24-12 57-22 96-22z" class="cls-3"/>
    <path fill="#4097ff" d="M800 100c19 6 45 11 84 11-39 0-72 10-96 22-12-6-25-14-52-14 6-6 31-13 64-19z"/>
    <path d="M191 111h-42l-5 17h-16l19-67h75l6 8-7 26-11 8 6 8-5 17h-17l3-9zm18-33h-50l-5 17h50zM308 119l-11 9h-67l-6-9 10-33h67l2-8h-67l5-17h75l6 8zm-12-16h-50l-3 8h51zM410 61l6 8-9 34-11 8h-59l-4 17h-17l19-67zm-63 17l-5 16h50l5-16zM424 78l5-17h84l-5 17h-33l-15 50h-17l15-50zM532 61h66l6 8-14 50-11 9h-66l-6-9 14-50zm3 17l-9 33h50l9-33zM662 111h-42l-5 17h-17l19-67h76l6 8-8 26-10 8 6 8-5 17h-17l2-9zm17-33h-50l-5 17h51zM48 166h75l-5 17H51l-2 8h58l6 8-7 25-11 9H20l5-17h67l2-8H36l-6-9 7-25zM187 208h-15l-7 25h-17l7-25h-16l-13-17 8-25h16l-4 16 6 9h33l11-9 4-16h17l-7 25zM236 166h75l-4 17h-67l-3 8h59l6 8-7 25-11 9h-75l4-17h67l3-8h-59l-6-9 7-25zM317 183l5-17h83l-4 17h-34l-14 50h-17l15-50zM414 175l10-9h67l6 9-9 33h-67l-3 8h67l-5 17h-75l-6-8zm11 16h51l2-8h-50zM599 166l5 8-16 59h-17l15-50h-24l-14 50h-17l14-50h-23l-14 50h-17l17-59 11-8zM626 166h75l-5 17h-67l-2 8h58l6 8-7 25-11 9h-75l5-17h67l2-8h-58l-6-9 7-25z" class="cls-5"/>
  </g>
</svg>
