<?xml version="1.0" encoding="utf-8"?>
<!-- Generator: Adobe Illustrator 22.1.0, SVG Export Plug-In . SVG Version: 6.00 Build 0)  -->
<svg version="1.1" id="Raptor_Systems" xmlns="http://www.w3.org/2000/svg" xmlns:xlink="http://www.w3.org/1999/xlink" x="0px"
	 y="0px" viewBox="0 0 1100 320" style="enable-background:new 0 0 1100 320;" xml:space="preserve">
<style type="text/css">
	.st0{fill:#FFAC00;}
	.st1{fill:#3473DB;}
	.st2{fill:#3982EB;}
	.st3{fill:#4097FF;}
	.st4{fill:#34495E;}
</style>
<path class="st0" d="M1026.2,145.2c0-9.9,12.3-17.9,27.7-17.9l0,0c11,11.7,26.7,24,24.9,41.9c-3.5,17-15.8,30-26.1,43.2
	c-15.6-29.8-45.7-33.8-74.8-34.4C995,168.6,1011.2,157.7,1026.2,145.2z"/>
<path class="st1" d="M1044.4,111.5c4.7,4.1,8.5,9,9.5,15.7c-15.3,0-27.7,8-27.7,17.9c-15,12.5-31.2,23.5-48.4,32.8l0,0
	c-121-0.6-207.3,77.3-223.2,116.7c0-34.4,9-77.6,34.5-114.6c2.6-3.8,5.4-7.5,8.4-11.1c8.4-10.3,18.2-20.5,29.7-28.5l0,0
	c17.2-12.9,36.5-22.7,57-29.1c-9.2-5.8-19-11.9-29.1-17.7c-20.4-11.6-41.5-22-63.1-31c-26.4-11-53.7-19.9-79.3-24.2
	c39.3-5.7,84.7,0.1,119.2,7.4c-4-7.9-14.2-14-23.4-20.5c27.2,4.2,54.2,9.7,80.8,16.6h0.2c49,13,96.5,31.5,139.5,58.6
	C1034,104.1,1039.7,107.4,1044.4,111.5z M992.5,118.5c14.9,3.7,29.4,4.2,45.1,9c-17.4-11.4-37-16.6-55.1-24.2
	C985.9,108.5,989.2,113.5,992.5,118.5L992.5,118.5z"/>
<path class="st2" d="M855.1,93.7c10.2,5.7,19.9,11.8,29.1,17.7c-39,0-65-5.2-84.6-11.1c-28.1-8.5-43.5-18.8-67.1-18.5
	c7.4-6.2,31.7-12.9,59.4-19.2C813.7,71.7,834.7,82.1,855.1,93.7z"/>
<path class="st2" d="M884.3,111.4c-20.5,6.3-39.8,16.1-57,29.1l0,0c-11.4,8-21.3,18.2-29.7,28.5c-19.2-3.5-43-0.9-56.1,9.6
	c0-10.1,16.5-29.8,46.5-45.2C811.9,121,844.8,111.4,884.3,111.4z"/>
<path class="st3" d="M799.6,100.3c19.6,5.9,45.7,11.1,84.6,11.1c-39.5,0-72.3,9.6-96.3,22c-12.4-6.4-24.9-14.5-51.5-14.5
	C742.1,112.5,767,105.5,799.6,100.3z"/>
<path class="st4" d="M190.9,111.3H149l-4.8,16.6h-16.6l19.2-66.8h75.1l6.1,8.3l-7.3,25.4l-10.8,8l6,8.5l-4.8,16.6h-16.7l2.4-8.4
	L190.9,111.3z M208.8,77.8h-50.2l-4.9,16.8h50.2L208.8,77.8z"/>
<path class="st4" d="M307.7,119.5l-10.8,8.4h-66.7l-6-8.4l9.6-33.3h66.9l2.4-8.5h-66.9l4.8-16.6h75.1l6,8.3L307.7,119.5z
	 M295.9,102.8h-50.2l-2.4,8.4h50.2L295.9,102.8z"/>
<path class="st4" d="M410.2,61.1l6,8.3l-9.6,33.4l-10.8,8.5h-58.5l-4.8,16.6h-16.6l19.2-66.8H410.2z M346.9,77.8l-4.8,16.7h50.2
	l4.8-16.7H346.9z"/>
<path class="st4" d="M424.4,77.8l4.8-16.7h83.5l-4.8,16.7h-33.4l-14.4,50.1h-16.7l14.4-50.1H424.4z"/>
<path class="st4" d="M531.7,61.1h66.7l6,8.3L590,119.5l-10.8,8.4h-66.7l-6-8.4l14.4-50.1L531.7,61.1z M535.1,77.8l-9.6,33.5h50.2
	l9.6-33.5H535.1z"/>
<path class="st4" d="M661.5,111.3h-41.9l-4.8,16.6h-16.6l19.2-66.8h75.1l6.1,8.3l-7.3,25.4l-10.8,8l6,8.5l-4.8,16.6H665l2.4-8.4
	L661.5,111.3z M679.4,77.8h-50.2l-4.9,16.8h50.2L679.4,77.8z"/>
<path class="st4" d="M47.9,166.1H123l-4.8,16.7H51.3l-2.4,8.4h58.5l6,8.3l-7.2,25l-10.8,8.4H20.3l4.8-16.6h66.8l2.4-8.5H35.9l-6-8.3
	l7.2-25.1L47.9,166.1z"/>
<path class="st4" d="M187.4,208.5h-15.7l-7,24.4H148l7-24.5h-15.9l-12.6-17.6l7-24.6h16.7l-4.6,16.3l6,8.3h33.5l10.7-8.3l4.6-16.3
	h16.7l-7,24.6L187.4,208.5z"/>
<path class="st4" d="M236.2,166.1h75.1l-4.8,16.7h-66.9l-2.4,8.4h58.5l6,8.3l-7.2,25l-10.8,8.4h-75.1l4.8-16.6h66.8l2.4-8.5h-58.4
	l-6-8.3l7.2-25.1L236.2,166.1z"/>
<path class="st4" d="M317.1,182.8l4.8-16.7h83.5l-4.8,16.7h-33.4l-14.4,50.1h-16.7l14.4-50.1L317.1,182.8z"/>
<path class="st4" d="M413.5,174.6l10.8-8.4H491l6,8.4l-9.5,33.3h-66.9l-2.4,8.4h66.9l-4.8,16.7h-75.1l-6-8.3L413.5,174.6z
	 M425.3,191.3h50.2l2.4-8.4h-50.2L425.3,191.3z"/>
<path class="st4" d="M598.5,166.1l5.9,8.4l-16.7,58.4h-16.6l14.4-50.2h-23.4l-14.4,50.2h-16.8l14.4-50.2H522l-14.4,50.2h-16.7
	l16.7-58.4l10.9-8.4H598.5z"/>
<path class="st4" d="M625.9,166.1H701l-4.8,16.7h-66.9l-2.4,8.4h58.5l6,8.3l-7.2,25l-10.8,8.4h-75.1l4.8-16.6h66.8l2.4-8.5h-58.4
	l-6-8.3l7.2-25.1L625.9,166.1z"/>
</svg>
