<svg xmlns="http://www.w3.org/2000/svg" viewBox="0 0 1100 320">
  <defs/>
  <defs>
    <style>
      .cls-3{fill:#fff}.cls-4{fill:#3982eb}
    </style>
  </defs>
  <g id="Layer_2" data-name="Layer 2">
    <path fill="#ffac00" d="M1027 145c0-10 12-18 27-18 11 12 27 24 25 42-3 17-16 30-26 43-16-29-46-33-75-34a300 300 0 0049-33z"/>
    <path fill="#3473db" d="M1045 112c5 4 8 9 9 15-15 0-27 8-27 18a300 300 0 01-49 33c-121-1-207 77-223 117a205 205 0 0143-126c8-10 18-21 30-29a186 186 0 0157-29c-10-5-19-12-30-17a580 580 0 00-63-31c-26-11-53-20-79-24 39-6 85 0 119 7-4-8-14-14-23-21a816 816 0 0181 17c49 13 96 32 139 59 5 3 11 6 16 11zm-52 7c15 3 29 4 45 9-17-12-37-17-55-25l10 16z"/>
    <path d="M1038 128c-16-5-30-6-45-9l-10-16c18 8 38 13 55 25z" class="cls-3"/>
    <path d="M855 94c11 5 20 12 30 17-39 0-65-5-85-11-28-8-44-18-67-18 7-6 32-13 59-19a580 580 0 0163 31zM885 111a186 186 0 00-57 29c-12 8-22 19-30 29-19-4-43-1-56 10 0-11 16-30 46-46 24-12 57-22 97-22z" class="cls-4"/>
    <path fill="#4097ff" d="M800 100c20 6 46 11 85 11-40 0-73 10-97 22-12-6-25-14-51-14 5-6 30-13 63-19z"/>
    <path d="M191 111h-42l-4 17h-17l19-67h75l6 8-7 26-11 8 6 8-5 17h-16l2-9zm18-33h-50l-5 17h50zM308 119l-11 9h-66l-6-9 9-33h67l2-8h-66l4-17h75l6 8zm-12-16h-50l-2 8h50zM411 61l6 8-10 34-11 8h-58l-5 17h-17l19-67zm-64 17l-5 16h51l4-16zM425 78l5-17h83l-5 17h-33l-15 50h-16l14-50zM532 61h67l6 8-15 50-10 9h-67l-6-9 14-50zm3 17l-9 33h50l10-33zM662 111h-42l-5 17h-16l19-67h75l6 8-7 26-11 8 6 8-5 17h-17l3-9zm18-33h-50l-5 17h50zM48 166h75l-4 17H52l-3 8h59l6 8-7 25-11 9H21l4-17h67l3-8H36l-6-9 7-25zM188 208h-16l-7 25h-17l7-25h-16l-12-17 7-25h17l-5 16 6 9h33l11-9 5-16h16l-7 25zM237 166h75l-5 17h-67l-2 8h58l6 8-7 25-11 9h-75l5-17h67l2-8h-58l-6-9 7-25zM317 183l5-17h84l-5 17h-33l-15 50h-17l15-50zM414 175l11-9h66l6 9-9 33h-67l-2 8h67l-5 17h-75l-6-8zm12 16h50l2-8h-50zM599 166l6 8-17 59h-17l15-50h-24l-14 50h-17l15-50h-24l-14 50h-17l17-59 11-8zM626 166h75l-4 17h-67l-3 8h59l6 8-7 25-11 9h-75l4-17h67l3-8h-59l-6-9 7-25z" class="cls-3"/>
  </g>
</svg>
