<?xml version="1.0" standalone="no"?>
<!DOCTYPE svg PUBLIC "-//W3C//DTD SVG 20010904//EN"
 "http://www.w3.org/TR/2001/REC-SVG-20010904/DTD/svg10.dtd">
<svg version="1.0" xmlns="http://www.w3.org/2000/svg"
 width="512.000000pt" height="512.000000pt" viewBox="0 0 512.000000 512.000000"
 preserveAspectRatio="xMidYMid meet">
<metadata>
Created by potrace 1.11, written by Peter Selinger 2001-2013
</metadata>
<g transform="translate(0.000000,512.000000) scale(0.100000,-0.100000)"
fill="#000000" stroke="none">
<path d="M1390 4431 c145 -97 305 -239 288 -256 -3 -3 -47 3 -99 14 -417 86
-939 127 -1290 102 -91 -7 -178 -15 -194 -19 -25 -7 -19 -10 46 -21 199 -35
595 -153 839 -251 58 -23 116 -47 130 -52 21 -8 -11 -19 -205 -68 -305 -76
-492 -141 -559 -192 -17 -13 -13 -15 45 -17 140 -4 252 -33 544 -141 116 -43
230 -84 255 -93 l45 -14 -40 -8 c-327 -58 -583 -124 -708 -182 -100 -47 -115
-63 -56 -63 184 0 409 -63 597 -168 l54 -29 -80 -46 c-299 -173 -517 -390
-548 -546 l-7 -34 34 26 c123 94 388 148 616 126 59 -5 109 -11 111 -13 2 -2
-24 -41 -57 -85 -264 -356 -436 -801 -495 -1276 -17 -138 -31 -345 -23 -345 3
0 16 24 30 53 74 162 229 369 412 553 508 510 1200 835 2010 945 194 26 666
37 839 20 362 -38 616 -175 751 -406 l26 -44 48 57 c164 198 247 331 288 461
25 79 26 89 15 153 -21 121 -76 210 -227 367 -80 83 -104 116 -114 151 -16 58
-72 140 -124 183 -105 86 -381 256 -608 376 -663 348 -1470 603 -2419 765
-158 27 -190 31 -170 17z m2574 -1137 c94 -36 213 -83 265 -105 92 -39 244
-120 238 -126 -2 -1 -19 2 -38 7 -19 6 -135 28 -259 50 -124 21 -240 42 -257
46 -28 5 -42 21 -93 100 -33 52 -60 97 -60 100 0 3 8 3 18 -1 9 -4 93 -36 186
-71z"/>
</g>
</svg>
